<mxfile host="65bd71144e">
    <diagram id="MNLX_EEWJzS8F8YmH2SB" name="Page-1">
        <mxGraphModel dx="857" dy="476" grid="1" gridSize="10" guides="1" tooltips="1" connect="1" arrows="1" fold="1" page="1" pageScale="1" pageWidth="850" pageHeight="1100" background="none" math="0" shadow="0">
            <root>
                <mxCell id="0"/>
                <mxCell id="1" parent="0"/>
                <mxCell id="2" value="e_sentence 1&lt;br&gt;e_sentence 2&lt;br&gt;e_sentence 3&lt;br&gt;...&lt;br&gt;e_sentence n" style="shape=cylinder3;whiteSpace=wrap;html=1;boundedLbl=1;backgroundOutline=1;size=15;" parent="1" vertex="1">
                    <mxGeometry x="134" y="270" width="100" height="180" as="geometry"/>
                </mxCell>
                <mxCell id="3" value="" style="shape=flexArrow;endArrow=classic;html=1;" parent="1" edge="1">
                    <mxGeometry width="50" height="50" relative="1" as="geometry">
                        <mxPoint x="244" y="409.57" as="sourcePoint"/>
                        <mxPoint x="374" y="409.57" as="targetPoint"/>
                    </mxGeometry>
                </mxCell>
                <mxCell id="13" value="original model" style="text;html=1;strokeColor=none;fillColor=none;align=center;verticalAlign=middle;whiteSpace=wrap;rounded=0;" parent="1" vertex="1">
                    <mxGeometry x="264" y="250" width="60" height="70" as="geometry"/>
                </mxCell>
                <mxCell id="18" value="c_sentence 1&lt;br&gt;c_sentence 2&lt;br&gt;c_sentence 3&lt;br&gt;...&lt;br&gt;c_sentence n" style="shape=cylinder3;whiteSpace=wrap;html=1;boundedLbl=1;backgroundOutline=1;size=15;" parent="1" vertex="1">
                    <mxGeometry x="384" y="270" width="100" height="180" as="geometry"/>
                </mxCell>
                <mxCell id="20" value="" style="shape=flexArrow;endArrow=classic;html=1;" parent="1" edge="1">
                    <mxGeometry width="50" height="50" relative="1" as="geometry">
                        <mxPoint x="700" y="409.99999999999994" as="sourcePoint"/>
                        <mxPoint x="760" y="410" as="targetPoint"/>
                    </mxGeometry>
                </mxCell>
                <mxCell id="22" value="Filter" style="text;html=1;strokeColor=none;fillColor=none;align=center;verticalAlign=middle;whiteSpace=wrap;rounded=0;sketch=0;" parent="1" vertex="1">
                    <mxGeometry x="690" y="370" width="60" height="30" as="geometry"/>
                </mxCell>
                <mxCell id="26" value="&lt;br&gt;c_sentence1 (0,0,1,0)&lt;br&gt;c_sentence2 (1,1,0,1)&lt;br&gt;c_sentencen (0,1,0,0)" style="shape=cylinder3;whiteSpace=wrap;html=1;boundedLbl=1;backgroundOutline=1;size=15;" parent="1" vertex="1">
                    <mxGeometry x="762.5" y="325" width="142.5" height="125" as="geometry"/>
                </mxCell>
                <mxCell id="27" value="" style="shape=flexArrow;endArrow=classic;html=1;" parent="1" edge="1">
                    <mxGeometry width="50" height="50" relative="1" as="geometry">
                        <mxPoint x="835" y="460" as="sourcePoint"/>
                        <mxPoint x="835" y="550" as="targetPoint"/>
                    </mxGeometry>
                </mxCell>
                <mxCell id="28" value="Clustering" style="text;html=1;strokeColor=none;fillColor=none;align=center;verticalAlign=middle;whiteSpace=wrap;rounded=0;sketch=0;" parent="1" vertex="1">
                    <mxGeometry x="845" y="490" width="60" height="30" as="geometry"/>
                </mxCell>
                <mxCell id="30" value="cluster1&lt;br&gt;(0.5, 0.3, 0.2, 0.6)" style="ellipse;shape=cloud;whiteSpace=wrap;html=1;sketch=0;" parent="1" vertex="1">
                    <mxGeometry x="690" y="547.5" width="135" height="70" as="geometry"/>
                </mxCell>
                <mxCell id="31" value="translated&lt;br&gt;Chinese syntactic&lt;br&gt;features" style="text;html=1;strokeColor=none;fillColor=none;align=center;verticalAlign=middle;whiteSpace=wrap;rounded=0;sketch=0;" parent="1" vertex="1">
                    <mxGeometry x="765" y="470" width="60" height="60" as="geometry"/>
                </mxCell>
                <mxCell id="36" value="" style="shape=flexArrow;endArrow=classic;html=1;" parent="1" edge="1">
                    <mxGeometry width="50" height="50" relative="1" as="geometry">
                        <mxPoint x="829.44" y="710" as="sourcePoint"/>
                        <mxPoint x="829.44" y="800" as="targetPoint"/>
                    </mxGeometry>
                </mxCell>
                <mxCell id="37" value="mean&lt;br&gt;activation&lt;br&gt;difference" style="text;html=1;strokeColor=none;fillColor=none;align=center;verticalAlign=middle;whiteSpace=wrap;rounded=0;sketch=0;" parent="1" vertex="1">
                    <mxGeometry x="835" y="720" width="55" height="50" as="geometry"/>
                </mxCell>
                <mxCell id="38" value="steering vector1" style="rounded=1;whiteSpace=wrap;html=1;sketch=0;" parent="1" vertex="1">
                    <mxGeometry x="725" y="810" width="85" height="40" as="geometry"/>
                </mxCell>
                <mxCell id="40" value="steering vectorn" style="rounded=1;whiteSpace=wrap;html=1;sketch=0;" parent="1" vertex="1">
                    <mxGeometry x="791.25" y="890" width="85" height="40" as="geometry"/>
                </mxCell>
                <mxCell id="41" value="steering vector2" style="rounded=1;whiteSpace=wrap;html=1;sketch=0;" parent="1" vertex="1">
                    <mxGeometry x="855" y="810" width="85" height="40" as="geometry"/>
                </mxCell>
                <mxCell id="42" value="......" style="text;html=1;strokeColor=none;fillColor=none;align=center;verticalAlign=middle;whiteSpace=wrap;rounded=0;sketch=0;" parent="1" vertex="1">
                    <mxGeometry x="800" y="850" width="60" height="30" as="geometry"/>
                </mxCell>
                <mxCell id="48" value="" style="shape=flexArrow;endArrow=classic;html=1;" parent="1" edge="1">
                    <mxGeometry width="50" height="50" relative="1" as="geometry">
                        <mxPoint x="710" y="870" as="sourcePoint"/>
                        <mxPoint x="264" y="520" as="targetPoint"/>
                        <Array as="points">
                            <mxPoint x="520" y="870"/>
                            <mxPoint x="520" y="520"/>
                        </Array>
                    </mxGeometry>
                </mxCell>
                <mxCell id="49" value="" style="shape=flexArrow;endArrow=classic;html=1;" parent="1" edge="1">
                    <mxGeometry width="50" height="50" relative="1" as="geometry">
                        <mxPoint x="183.5" y="460" as="sourcePoint"/>
                        <mxPoint x="184" y="600" as="targetPoint"/>
                    </mxGeometry>
                </mxCell>
                <mxCell id="51" value="" style="shape=actor;whiteSpace=wrap;html=1;" parent="1" vertex="1">
                    <mxGeometry x="14" y="482.5" width="40" height="60" as="geometry"/>
                </mxCell>
                <mxCell id="52" value="Controller" style="text;html=1;strokeColor=none;fillColor=none;align=center;verticalAlign=middle;whiteSpace=wrap;rounded=0;" parent="1" vertex="1">
                    <mxGeometry x="4" y="542.5" width="60" height="30" as="geometry"/>
                </mxCell>
                <mxCell id="53" value="steering vector" style="text;html=1;strokeColor=none;fillColor=none;align=center;verticalAlign=middle;whiteSpace=wrap;rounded=0;" parent="1" vertex="1">
                    <mxGeometry x="194" y="500" width="60" height="30" as="geometry"/>
                </mxCell>
                <mxCell id="63" value="Activation Model&lt;br&gt;with&lt;br&gt;steering&lt;br&gt;vector" style="text;html=1;strokeColor=none;fillColor=none;align=center;verticalAlign=middle;whiteSpace=wrap;rounded=0;" parent="1" vertex="1">
                    <mxGeometry x="59" y="487.5" width="60" height="80" as="geometry"/>
                </mxCell>
                <mxCell id="dglBWSELUDTFpI3Xy1hD-63" value="" style="group" parent="1" vertex="1" connectable="0">
                    <mxGeometry x="270" y="320" width="54" height="80" as="geometry"/>
                </mxCell>
                <mxCell id="14" value="" style="shape=cube;whiteSpace=wrap;html=1;boundedLbl=1;backgroundOutline=1;darkOpacity=0.05;darkOpacity2=0.1;size=20;" parent="dglBWSELUDTFpI3Xy1hD-63" vertex="1">
                    <mxGeometry x="34" width="20" height="80" as="geometry"/>
                </mxCell>
                <mxCell id="15" value="" style="shape=cube;whiteSpace=wrap;html=1;boundedLbl=1;backgroundOutline=1;darkOpacity=0.05;darkOpacity2=0.1;size=20;" parent="dglBWSELUDTFpI3Xy1hD-63" vertex="1">
                    <mxGeometry x="29" width="20" height="80" as="geometry"/>
                </mxCell>
                <mxCell id="16" value="" style="shape=cube;whiteSpace=wrap;html=1;boundedLbl=1;backgroundOutline=1;darkOpacity=0.05;darkOpacity2=0.1;size=20;" parent="dglBWSELUDTFpI3Xy1hD-63" vertex="1">
                    <mxGeometry x="24" width="20" height="80" as="geometry"/>
                </mxCell>
                <mxCell id="17" value="" style="shape=cube;whiteSpace=wrap;html=1;boundedLbl=1;backgroundOutline=1;darkOpacity=0.05;darkOpacity2=0.1;size=20;" parent="dglBWSELUDTFpI3Xy1hD-63" vertex="1">
                    <mxGeometry x="19" width="20" height="80" as="geometry"/>
                </mxCell>
                <mxCell id="6" value="" style="shape=cube;whiteSpace=wrap;html=1;boundedLbl=1;backgroundOutline=1;darkOpacity=0.05;darkOpacity2=0.1;size=20;" parent="dglBWSELUDTFpI3Xy1hD-63" vertex="1">
                    <mxGeometry x="14" width="20" height="80" as="geometry"/>
                </mxCell>
                <mxCell id="7" value="" style="shape=cube;whiteSpace=wrap;html=1;boundedLbl=1;backgroundOutline=1;darkOpacity=0.05;darkOpacity2=0.1;size=20;" parent="dglBWSELUDTFpI3Xy1hD-63" vertex="1">
                    <mxGeometry x="9" width="20" height="80" as="geometry"/>
                </mxCell>
                <mxCell id="5" value="" style="shape=cube;whiteSpace=wrap;html=1;boundedLbl=1;backgroundOutline=1;darkOpacity=0.05;darkOpacity2=0.1;size=20;" parent="dglBWSELUDTFpI3Xy1hD-63" vertex="1">
                    <mxGeometry x="4" width="20" height="80" as="geometry"/>
                </mxCell>
                <mxCell id="4" value="" style="shape=cube;whiteSpace=wrap;html=1;boundedLbl=1;backgroundOutline=1;darkOpacity=0.05;darkOpacity2=0.1;size=20;" parent="dglBWSELUDTFpI3Xy1hD-63" vertex="1">
                    <mxGeometry width="20" height="80" as="geometry"/>
                </mxCell>
                <mxCell id="dglBWSELUDTFpI3Xy1hD-64" value="" style="group" parent="1" vertex="1" connectable="0">
                    <mxGeometry x="119" y="490" width="55" height="80" as="geometry"/>
                </mxCell>
                <mxCell id="55" value="" style="shape=cube;whiteSpace=wrap;html=1;boundedLbl=1;backgroundOutline=1;darkOpacity=0.05;darkOpacity2=0.1;size=20;" parent="dglBWSELUDTFpI3Xy1hD-64" vertex="1">
                    <mxGeometry x="35" width="20" height="80" as="geometry"/>
                </mxCell>
                <mxCell id="56" value="" style="shape=cube;whiteSpace=wrap;html=1;boundedLbl=1;backgroundOutline=1;darkOpacity=0.05;darkOpacity2=0.1;size=20;" parent="dglBWSELUDTFpI3Xy1hD-64" vertex="1">
                    <mxGeometry x="30" width="20" height="80" as="geometry"/>
                </mxCell>
                <mxCell id="57" value="" style="shape=cube;whiteSpace=wrap;html=1;boundedLbl=1;backgroundOutline=1;darkOpacity=0.05;darkOpacity2=0.1;size=20;" parent="dglBWSELUDTFpI3Xy1hD-64" vertex="1">
                    <mxGeometry x="25" width="20" height="80" as="geometry"/>
                </mxCell>
                <mxCell id="58" value="" style="shape=cube;whiteSpace=wrap;html=1;boundedLbl=1;backgroundOutline=1;darkOpacity=0.05;darkOpacity2=0.1;size=20;" parent="dglBWSELUDTFpI3Xy1hD-64" vertex="1">
                    <mxGeometry x="20" width="20" height="80" as="geometry"/>
                </mxCell>
                <mxCell id="59" value="" style="shape=cube;whiteSpace=wrap;html=1;boundedLbl=1;backgroundOutline=1;darkOpacity=0.05;darkOpacity2=0.1;size=20;" parent="dglBWSELUDTFpI3Xy1hD-64" vertex="1">
                    <mxGeometry x="15" width="20" height="80" as="geometry"/>
                </mxCell>
                <mxCell id="60" value="" style="shape=cube;whiteSpace=wrap;html=1;boundedLbl=1;backgroundOutline=1;darkOpacity=0.05;darkOpacity2=0.1;size=20;" parent="dglBWSELUDTFpI3Xy1hD-64" vertex="1">
                    <mxGeometry x="10" width="20" height="80" as="geometry"/>
                </mxCell>
                <mxCell id="61" value="" style="shape=cube;whiteSpace=wrap;html=1;boundedLbl=1;backgroundOutline=1;darkOpacity=0.05;darkOpacity2=0.1;size=20;" parent="dglBWSELUDTFpI3Xy1hD-64" vertex="1">
                    <mxGeometry x="5" width="20" height="80" as="geometry"/>
                </mxCell>
                <mxCell id="62" value="" style="shape=cube;whiteSpace=wrap;html=1;boundedLbl=1;backgroundOutline=1;darkOpacity=0.05;darkOpacity2=0.1;size=20;" parent="dglBWSELUDTFpI3Xy1hD-64" vertex="1">
                    <mxGeometry width="20" height="80" as="geometry"/>
                </mxCell>
                <mxCell id="dglBWSELUDTFpI3Xy1hD-68" value="vectors showing translated Chinese syntatic features&lt;br&gt;&lt;br&gt;（0，0，1，0）&lt;br&gt;（1，1，0，1）&lt;br&gt;（0，0，0，0）&lt;br&gt;...&lt;br&gt;（0，1，0，0）" style="rounded=1;whiteSpace=wrap;html=1;" parent="1" vertex="1">
                    <mxGeometry x="570" y="306.25" width="120" height="137.5" as="geometry"/>
                </mxCell>
                <mxCell id="dglBWSELUDTFpI3Xy1hD-69" value="" style="shape=flexArrow;endArrow=classic;html=1;" parent="1" edge="1">
                    <mxGeometry width="50" height="50" relative="1" as="geometry">
                        <mxPoint x="490" y="409.99999999999994" as="sourcePoint"/>
                        <mxPoint x="560" y="410" as="targetPoint"/>
                    </mxGeometry>
                </mxCell>
                <mxCell id="dglBWSELUDTFpI3Xy1hD-70" value="" style="shape=flexArrow;endArrow=classic;html=1;" parent="1" edge="1">
                    <mxGeometry width="50" height="50" relative="1" as="geometry">
                        <mxPoint x="920" y="410" as="sourcePoint"/>
                        <mxPoint x="1030" y="410" as="targetPoint"/>
                    </mxGeometry>
                </mxCell>
                <mxCell id="dglBWSELUDTFpI3Xy1hD-71" value="new model&lt;br&gt;(activation function)" style="text;html=1;strokeColor=none;fillColor=none;align=center;verticalAlign=middle;whiteSpace=wrap;rounded=0;" parent="1" vertex="1">
                    <mxGeometry x="910" y="250" width="100" height="70" as="geometry"/>
                </mxCell>
                <mxCell id="dglBWSELUDTFpI3Xy1hD-72" value="" style="group" parent="1" vertex="1" connectable="0">
                    <mxGeometry x="940" y="320" width="54" height="80" as="geometry"/>
                </mxCell>
                <mxCell id="dglBWSELUDTFpI3Xy1hD-73" value="" style="shape=cube;whiteSpace=wrap;html=1;boundedLbl=1;backgroundOutline=1;darkOpacity=0.05;darkOpacity2=0.1;size=20;" parent="dglBWSELUDTFpI3Xy1hD-72" vertex="1">
                    <mxGeometry x="34" width="20" height="80" as="geometry"/>
                </mxCell>
                <mxCell id="dglBWSELUDTFpI3Xy1hD-74" value="" style="shape=cube;whiteSpace=wrap;html=1;boundedLbl=1;backgroundOutline=1;darkOpacity=0.05;darkOpacity2=0.1;size=20;" parent="dglBWSELUDTFpI3Xy1hD-72" vertex="1">
                    <mxGeometry x="29" width="20" height="80" as="geometry"/>
                </mxCell>
                <mxCell id="dglBWSELUDTFpI3Xy1hD-75" value="" style="shape=cube;whiteSpace=wrap;html=1;boundedLbl=1;backgroundOutline=1;darkOpacity=0.05;darkOpacity2=0.1;size=20;" parent="dglBWSELUDTFpI3Xy1hD-72" vertex="1">
                    <mxGeometry x="24" width="20" height="80" as="geometry"/>
                </mxCell>
                <mxCell id="dglBWSELUDTFpI3Xy1hD-76" value="" style="shape=cube;whiteSpace=wrap;html=1;boundedLbl=1;backgroundOutline=1;darkOpacity=0.05;darkOpacity2=0.1;size=20;" parent="dglBWSELUDTFpI3Xy1hD-72" vertex="1">
                    <mxGeometry x="19" width="20" height="80" as="geometry"/>
                </mxCell>
                <mxCell id="dglBWSELUDTFpI3Xy1hD-77" value="" style="shape=cube;whiteSpace=wrap;html=1;boundedLbl=1;backgroundOutline=1;darkOpacity=0.05;darkOpacity2=0.1;size=20;" parent="dglBWSELUDTFpI3Xy1hD-72" vertex="1">
                    <mxGeometry x="14" width="20" height="80" as="geometry"/>
                </mxCell>
                <mxCell id="dglBWSELUDTFpI3Xy1hD-78" value="" style="shape=cube;whiteSpace=wrap;html=1;boundedLbl=1;backgroundOutline=1;darkOpacity=0.05;darkOpacity2=0.1;size=20;" parent="dglBWSELUDTFpI3Xy1hD-72" vertex="1">
                    <mxGeometry x="9" width="20" height="80" as="geometry"/>
                </mxCell>
                <mxCell id="dglBWSELUDTFpI3Xy1hD-79" value="" style="shape=cube;whiteSpace=wrap;html=1;boundedLbl=1;backgroundOutline=1;darkOpacity=0.05;darkOpacity2=0.1;size=20;" parent="dglBWSELUDTFpI3Xy1hD-72" vertex="1">
                    <mxGeometry x="4" width="20" height="80" as="geometry"/>
                </mxCell>
                <mxCell id="dglBWSELUDTFpI3Xy1hD-80" value="" style="shape=cube;whiteSpace=wrap;html=1;boundedLbl=1;backgroundOutline=1;darkOpacity=0.05;darkOpacity2=0.1;size=20;" parent="dglBWSELUDTFpI3Xy1hD-72" vertex="1">
                    <mxGeometry width="20" height="80" as="geometry"/>
                </mxCell>
                <mxCell id="dglBWSELUDTFpI3Xy1hD-81" value="&lt;br&gt;c_sentence1' (0,0,0,0)&lt;br&gt;c_sentence2' (0,1,0,1)&lt;br&gt;c_sentencen' (0,0,0,0)" style="shape=cylinder3;whiteSpace=wrap;html=1;boundedLbl=1;backgroundOutline=1;size=15;" parent="1" vertex="1">
                    <mxGeometry x="1035" y="325" width="142.5" height="125" as="geometry"/>
                </mxCell>
                <mxCell id="dglBWSELUDTFpI3Xy1hD-82" value="optimized" style="text;html=1;strokeColor=none;fillColor=none;align=center;verticalAlign=middle;whiteSpace=wrap;rounded=0;" parent="1" vertex="1">
                    <mxGeometry x="1060" y="250" width="100" height="70" as="geometry"/>
                </mxCell>
                <mxCell id="dglBWSELUDTFpI3Xy1hD-89" value="cluster1&lt;br&gt;(0.5, 0.3, 0.2, 0.6)" style="ellipse;shape=cloud;whiteSpace=wrap;html=1;sketch=0;" parent="1" vertex="1">
                    <mxGeometry x="845" y="567.5" width="135" height="70" as="geometry"/>
                </mxCell>
                <mxCell id="dglBWSELUDTFpI3Xy1hD-92" value="clustern&lt;br&gt;(0.5, 0.3, 0.2, 0.6)" style="ellipse;shape=cloud;whiteSpace=wrap;html=1;sketch=0;" parent="1" vertex="1">
                    <mxGeometry x="775" y="640" width="135" height="70" as="geometry"/>
                </mxCell>
                <mxCell id="dglBWSELUDTFpI3Xy1hD-95" value="" style="shape=flexArrow;endArrow=classic;html=1;" parent="1" edge="1">
                    <mxGeometry width="50" height="50" relative="1" as="geometry">
                        <mxPoint x="1109.5" y="460" as="sourcePoint"/>
                        <mxPoint x="1110.5" y="510" as="targetPoint"/>
                    </mxGeometry>
                </mxCell>
                <mxCell id="dglBWSELUDTFpI3Xy1hD-96" value="hook" style="text;html=1;strokeColor=none;fillColor=none;align=center;verticalAlign=middle;whiteSpace=wrap;rounded=0;" parent="1" vertex="1">
                    <mxGeometry x="1117.5" y="460" width="60" height="30" as="geometry"/>
                </mxCell>
                <mxCell id="dglBWSELUDTFpI3Xy1hD-97" value="torch(5, 1, 1024)&lt;br&gt;torch(5, 1, 1024)&lt;br&gt;torch(5, 1, 1024)" style="rounded=1;whiteSpace=wrap;html=1;" parent="1" vertex="1">
                    <mxGeometry x="1050" y="520" width="120" height="60" as="geometry"/>
                </mxCell>
                <mxCell id="dglBWSELUDTFpI3Xy1hD-98" value="" style="endArrow=classic;html=1;exitX=0.015;exitY=0.081;exitDx=0;exitDy=0;exitPerimeter=0;" parent="1" source="dglBWSELUDTFpI3Xy1hD-97" target="30" edge="1">
                    <mxGeometry width="50" height="50" relative="1" as="geometry">
                        <mxPoint x="920" y="630" as="sourcePoint"/>
                        <mxPoint x="970" y="580" as="targetPoint"/>
                    </mxGeometry>
                </mxCell>
                <mxCell id="dglBWSELUDTFpI3Xy1hD-99" value="" style="endArrow=classic;html=1;exitX=0;exitY=0.5;exitDx=0;exitDy=0;" parent="1" source="dglBWSELUDTFpI3Xy1hD-97" target="dglBWSELUDTFpI3Xy1hD-89" edge="1">
                    <mxGeometry width="50" height="50" relative="1" as="geometry">
                        <mxPoint x="920" y="630" as="sourcePoint"/>
                        <mxPoint x="970" y="580" as="targetPoint"/>
                    </mxGeometry>
                </mxCell>
                <mxCell id="dglBWSELUDTFpI3Xy1hD-100" value="" style="endArrow=classic;html=1;" parent="1" target="dglBWSELUDTFpI3Xy1hD-92" edge="1">
                    <mxGeometry width="50" height="50" relative="1" as="geometry">
                        <mxPoint x="1060" y="580" as="sourcePoint"/>
                        <mxPoint x="920" y="670" as="targetPoint"/>
                    </mxGeometry>
                </mxCell>
                <mxCell id="54" value="better translation:&lt;br&gt;&lt;br&gt;c_sentence 1&lt;br&gt;c_sentence 2&lt;br&gt;c_sentence 3&lt;br&gt;...&lt;br&gt;c_sentence n" style="shape=cylinder3;whiteSpace=wrap;html=1;boundedLbl=1;backgroundOutline=1;size=15;" parent="1" vertex="1">
                    <mxGeometry x="134" y="610" width="110" height="180" as="geometry"/>
                </mxCell>
                <mxCell id="64" value="这里参考了论文https://aclanthology.org/W18-1603/&lt;br&gt;论文总结了translated Chinese（与original Chinese对照）的syntatic features&lt;br&gt;我们将m个features转化为m维向量，一个句子若有某feature记为1，没有记为0&lt;br&gt;n个句子可以得到n个m维向量" style="text;html=1;strokeColor=none;fillColor=none;align=center;verticalAlign=middle;whiteSpace=wrap;rounded=0;" vertex="1" parent="1">
                    <mxGeometry x="497.5" y="120" width="265" height="40" as="geometry"/>
                </mxCell>
                <mxCell id="66" value="" style="endArrow=classic;html=1;entryX=0.5;entryY=0;entryDx=0;entryDy=0;" edge="1" parent="1" target="dglBWSELUDTFpI3Xy1hD-68">
                    <mxGeometry width="50" height="50" relative="1" as="geometry">
                        <mxPoint x="630" y="210" as="sourcePoint"/>
                        <mxPoint x="710" y="300" as="targetPoint"/>
                    </mxGeometry>
                </mxCell>
                <mxCell id="67" value="去掉所有维度均为0的句子" style="text;html=1;strokeColor=none;fillColor=none;align=center;verticalAlign=middle;whiteSpace=wrap;rounded=0;" vertex="1" parent="1">
                    <mxGeometry x="705" y="240" width="60" height="30" as="geometry"/>
                </mxCell>
                <mxCell id="68" value="" style="endArrow=classic;html=1;entryX=0.75;entryY=0;entryDx=0;entryDy=0;" edge="1" parent="1" target="22">
                    <mxGeometry width="50" height="50" relative="1" as="geometry">
                        <mxPoint x="735" y="280" as="sourcePoint"/>
                        <mxPoint x="910" y="280" as="targetPoint"/>
                    </mxGeometry>
                </mxCell>
                <mxCell id="69" value="在decoder最后一层的forward function加（0，1）随机数&lt;br&gt;每隔4个时间步加一次（我们试下来觉得这样产生的扰动比较适中）" style="text;html=1;strokeColor=none;fillColor=none;align=center;verticalAlign=middle;whiteSpace=wrap;rounded=0;" vertex="1" parent="1">
                    <mxGeometry x="857" y="160" width="220" height="30" as="geometry"/>
                </mxCell>
                <mxCell id="70" value="" style="endArrow=classic;html=1;" edge="1" parent="1" target="dglBWSELUDTFpI3Xy1hD-71">
                    <mxGeometry width="50" height="50" relative="1" as="geometry">
                        <mxPoint x="960" y="210" as="sourcePoint"/>
                        <mxPoint x="910" y="310" as="targetPoint"/>
                    </mxGeometry>
                </mxCell>
                <mxCell id="71" value="反复多次收集结果变好（即特征向量中1的位数减少）的句子，hook到句子的hidden state向量" style="text;html=1;strokeColor=none;fillColor=none;align=center;verticalAlign=middle;whiteSpace=wrap;rounded=0;" vertex="1" parent="1">
                    <mxGeometry x="1210" y="360" width="145" height="30" as="geometry"/>
                </mxCell>
                <mxCell id="73" value="" style="endArrow=classic;html=1;entryX=1;entryY=0.5;entryDx=0;entryDy=0;" edge="1" parent="1" target="dglBWSELUDTFpI3Xy1hD-96">
                    <mxGeometry width="50" height="50" relative="1" as="geometry">
                        <mxPoint x="1220" y="410" as="sourcePoint"/>
                        <mxPoint x="910" y="500" as="targetPoint"/>
                    </mxGeometry>
                </mxCell>
                <mxCell id="74" value="特征向量进行聚类，每个cluster代表一种翻译错误&lt;br&gt;" style="text;html=1;strokeColor=none;fillColor=none;align=center;verticalAlign=middle;whiteSpace=wrap;rounded=0;" vertex="1" parent="1">
                    <mxGeometry x="620" y="487.5" width="120" height="30" as="geometry"/>
                </mxCell>
                <mxCell id="75" value="每个cluster中的句子，对hook到的hidden state差值取平均值" style="text;html=1;strokeColor=none;fillColor=none;align=center;verticalAlign=middle;whiteSpace=wrap;rounded=0;" vertex="1" parent="1">
                    <mxGeometry x="640" y="710" width="160" height="30" as="geometry"/>
                </mxCell>
            </root>
        </mxGraphModel>
    </diagram>
</mxfile>